Coordinates
version=1
nRows=29
nColumns=24
inDegrees=yes

Units are S.I. units (second, meters, Newtons, ...)
Angles are in degrees.

endheader
time	pelvis_tilt	pelvis_list	pelvis_rotation	pelvis_tx	pelvis_ty	pelvis_tz	hip_flexion_r	hip_adduction_r	hip_rotation_r	knee_angle_r	ankle_angle_r	subtalar_angle_r	mtp_angle_r	hip_flexion_l	hip_adduction_l	hip_rotation_l	knee_angle_l	ankle_angle_l	subtalar_angle_l	mtp_angle_l	lumbar_extension	lumbar_bending	lumbar_rotation
      1.73500000	     22.91978685	     -5.24287598	      3.31394748	     -0.18451495	      0.85944706	     -0.03154847	     -6.25296633	      5.80535830	    -17.28647833	    -26.78440388	     32.09352031	      5.76479071	     32.70718682	    -22.01271586	     -4.51642863	    -10.05646633	    -18.80898924	     28.82716350	     11.79397087	     29.94085218	    -37.19205813	      4.84860465	    -10.76955832
      1.74000000	     23.09052378	     -5.44179842	      3.54705635	     -0.17839538	      0.85932532	     -0.03125723	     -6.73814204	      6.33666329	    -17.72819052	    -23.27510406	     31.59137464	      6.10847992	     33.01605542	    -22.61556320	     -4.88440256	    -10.13607475	    -18.87622041	     29.17177280	     12.03375110	     29.78343059	    -37.31874190	      5.17422846	    -10.90324828
      1.74500000	     23.17806975	     -5.66272175	      3.70133375	     -0.17219200	      0.85895487	     -0.03068953	     -7.16111087	      6.91997506	    -18.01482185	    -19.71855129	     30.78571455	      6.27093388	     34.79856611	    -23.09218769	     -5.28839648	    -10.45130762	    -19.09572426	     29.79670533	     12.56384539	     29.06325010	    -37.34554897	      5.45861041	    -10.93796067
      1.75000000	     23.30368985	     -5.72354044	      3.87913962	     -0.16596682	      0.85857360	     -0.03026284	     -7.64753432	      7.31374513	    -18.48339432	    -16.24663556	     30.07536225	      6.91371445	     35.05713875	    -23.65739715	     -5.49734294	    -10.53540394	    -19.16711816	     30.06779939	     12.72242467	     28.95337195	    -37.40835051	      5.61522361	    -11.07100544
      1.75500000	     23.33214318	     -5.80526416	      4.02075056	     -0.15966677	      0.85790438	     -0.02961499	     -8.04312327	      7.75961021	    -18.84717237	    -12.79158428	     29.05807482	      7.23623437	     37.14069641	    -24.07078176	     -5.75777021	    -10.78047423	    -19.39484582	     30.62104167	     13.19744655	     28.34419291	    -37.35823629	      5.75399189	    -11.17316774
      1.76000000	     23.32994261	     -5.77360484	      4.15262332	     -0.15334791	      0.85710812	     -0.02904564	     -8.36893144	      8.05451713	    -19.34682864	     -9.60950066	     28.31244755	      8.03342227	     37.25314914	    -24.47860878	     -5.86346355	    -10.86141854	    -19.53884290	     31.01460805	     13.28077240	     28.33287541	    -37.27116445	      5.79249770	    -11.33452266
      1.76500000	     23.29009063	     -5.69643392	      4.21648240	     -0.14707876	      0.85616651	     -0.02828321	     -8.61830400	      8.29244189	    -19.78970954	     -6.63286063	     27.32900579	      8.77159091	     39.34113810	    -24.80480032	     -5.93192233	    -11.08517049	    -19.81848384	     31.48861657	     13.72145558	     27.87393095	    -37.15490278	      5.73590836	    -11.44383919
      1.77000000	     23.21580644	     -5.56771901	      4.26247225	     -0.14082651	      0.85512105	     -0.02752739	     -8.77425412	      8.45332786	    -20.28518307	     -3.97683552	     26.60146995	      9.76409512	     39.53490156	    -25.09915051	     -5.92441185	    -11.23424886	    -20.07436484	     31.85339842	     13.91052043	     27.86002441	    -37.00416632	      5.62604963	    -11.58278855
      1.77500000	     23.05845533	     -5.45887482	      4.31851182	     -0.13459653	      0.85391747	     -0.02675293	     -8.78353868	      8.62301088	    -20.82661226	     -1.59993186	     25.88888832	     10.78485820	     39.77653773	    -25.26338783	     -5.94829169	    -11.35469560	    -20.41346038	     32.25684414	     14.06358515	     27.85765007	    -36.76522344	      5.54108240	    -11.69262914
      1.78000000	     22.90779611	     -5.28234503	      4.35326050	     -0.12844222	      0.85270568	     -0.02599756	     -8.74541448	      8.69033420	    -21.47200518	      0.48764574	     25.15070918	     12.05408673	     41.67434493	    -25.42213273	     -5.89012964	    -11.42656837	    -20.78313917	     32.67958838	     14.26395838	     27.47421877	    -36.54502528	      5.38578317	    -11.81502635
      1.78500000	     22.74948479	     -5.15543219	      4.36506235	     -0.12227470	      0.85145437	     -0.02510581	     -8.68748360	      8.81356963	    -21.98606114	      2.36610514	     24.53329073	     13.22631375	     41.86515690	    -25.54417889	     -5.90394896	    -11.64168808	    -21.24289546	     33.08207702	     14.56286200	     27.50362911	    -36.31536148	      5.25555020	    -11.89274916
      1.79000000	     22.57370944	     -5.02742247	      4.40415345	     -0.11613359	      0.85018496	     -0.02429734	     -8.57066185	      8.91614107	    -22.60066071	      3.97146953	     23.99029083	     14.56958089	     42.20190123	    -25.62595271	     -5.92000734	    -11.76818041	    -21.73258950	     33.46335987	     14.77340083	     27.51283008	    -36.06807445	      5.14953865	    -11.97583241
      1.79500000	     22.38222841	     -4.90295897	      4.43729238	     -0.11001816	      0.84891995	     -0.02348883	     -8.41821757	      9.00435793	    -23.19396442	      5.34937266	     23.47990051	     15.92636911	     42.65602629	    -25.67521261	     -5.93752635	    -11.86723174	    -22.25197508	     33.80847090	     14.96008315	     27.51581492	    -35.80493108	      5.04775689	    -12.03163272
      1.80000000	     22.18916923	     -4.81069129	      4.49899761	     -0.10392747	      0.84766688	     -0.02268576	     -8.25741572	      9.12160125	    -23.76017295	      6.52716764	     22.97540435	     17.15100630	     43.06266085	    -25.67687427	     -6.01428945	    -11.96128938	    -22.86899958	     34.14897017	     15.14077105	     27.55490210	    -35.54157309	      4.99205286	    -12.09141895
      1.80500000	     22.01484119	     -4.71442630	      4.55356129	     -0.09785433	      0.84647403	     -0.02191703	     -8.11273334	      9.21093035	    -24.30574037	      7.49240925	     22.51270679	     18.42293595	     43.60445057	    -25.69915987	     -6.07869524	    -12.00543355	    -23.47793031	     34.42604681	     15.31089962	     27.62469830	    -35.30137552	      4.93836945	    -12.10014973
      1.81000000	     21.82497568	     -4.67294368	      4.66591789	     -0.09180141	      0.84527359	     -0.02119430	     -7.95535343	      9.35535202	    -24.80010351	      8.28214298	     22.04409362	     19.37832248	     43.91926256	    -25.62019652	     -6.24570595	    -12.03996286	    -24.26836610	     34.70894159	     15.47435905	     27.73917084	    -35.03885167	      4.96919388	    -12.14005199
      1.81500000	     21.67480718	     -4.62383679	      4.77640925	     -0.08576248	      0.84416486	     -0.02049777	     -7.83818276	      9.47026494	    -25.30032512	      8.85985695	     21.59932582	     20.37203888	     44.26477407	    -25.57211843	     -6.40610351	    -12.04918179	    -25.07894728	     34.95234148	     15.64471822	     27.90770679	    -34.82262987	      4.99704509	    -12.16197064
      1.82000000	     21.53212740	     -4.58446958	      4.90689740	     -0.07966935	      0.84311587	     -0.01987343	     -7.74522553	      9.57849695	    -25.78949257	      9.27612136	     21.20744161	     21.26242101	     44.65972278	    -25.50428963	     -6.58948939	    -12.04404814	    -25.94824304	     35.14305134	     15.79132782	     28.16642332	    -34.60520552	      5.05618222	    -12.22745388
      1.82500000	     21.41905000	     -4.56563841	      5.05736310	     -0.07358957	      0.84215828	     -0.01932323	     -7.70012730	      9.69061370	    -26.23368250	      9.54615730	     20.76641115	     22.07561999	     45.23640976	    -25.43304541	     -6.80148764	    -11.96279702	    -26.87805423	     35.21434253	     15.91316616	     28.67239011	    -34.41737274	      5.15682470	    -12.21559017
      1.83000000	     21.30948902	     -4.57201201	      5.24840365	     -0.06755706	      0.84123578	     -0.01884082	     -7.65917479	      9.81612742	    -26.62197924	      9.65498972	     20.29484053	     22.48821855	     45.72460596	    -25.28456639	     -7.07219378	    -11.85239061	    -27.96706727	     35.26680412	     16.04056272	     29.30674213	    -34.23617839	      5.30870563	    -12.23499024
      1.83500000	     21.26421682	     -4.57285477	      5.44295901	     -0.06148390	      0.84046640	     -0.01841221	     -7.72664360	      9.92739206	    -26.95503724	      9.69239089	     19.64985126	     22.76697502	     46.82443365	    -25.18988400	     -7.33619574	    -11.72126291	    -29.07244194	     35.16946654	     15.98625443	     31.04943604	    -34.11836285	      5.46678494	    -12.27245079
      1.84000000	     21.18201933	     -4.59847954	      5.65441295	     -0.05547735	      0.83969482	     -0.01801231	     -7.74882926	     10.04285224	    -27.13968615	      9.57997144	     19.03551398	     22.52419876	     47.20548999	    -24.97058301	     -7.64624042	    -11.55505855	    -30.34386272	     35.04848011	     16.03278942	     32.08066531	    -33.96715283	      5.66112787	    -12.30057759
      1.84500000	     21.16302589	     -4.63802597	      5.92615135	     -0.04941603	      0.83904934	     -0.01776404	     -7.87959539	     10.17590511	    -27.33345852	      9.44450616	     18.38687356	     22.28153867	     47.83560695	    -24.76901833	     -7.99277721	    -11.28790936	    -31.68932211	     34.79514160	     15.99465490	     33.69172056	    -33.86844863	      5.91628190	    -12.32580736
      1.85000000	     21.17839496	     -4.66737504	      6.24786433	     -0.04335793	      0.83853907	     -0.01764210	     -8.03853117	     10.29213794	    -27.62418153	      9.18615462	     17.70740430	     22.00967556	     47.81772397	    -24.54721897	     -8.34577103	    -10.92769366	    -33.12307538	     34.57373441	     15.98436810	     33.86786917	    -33.80309600	      6.19487200	    -12.40288659
      1.85500000	     21.18267709	     -4.73221925	      6.49564739	     -0.03735416	      0.83804857	     -0.01736594	     -8.25379357	     10.43496384	    -27.37603095	      9.00986167	     16.80096275	     20.80136796	     48.72723807	    -24.25450670	     -8.72168912	    -10.66034595	    -34.66836561	     34.01874046	     15.81734591	     36.48674308	    -33.73765212	      6.46804751	    -12.40478372
      1.86000000	     21.18683921	     -4.81970082	      6.80557163	     -0.03132935	      0.83763543	     -0.01726165	     -8.42344578	     10.58777193	    -27.34840889	      8.67661484	     15.97787792	     19.84619717	     49.40461710	    -23.88204163	     -9.13981282	    -10.29583107	    -36.33406657	     33.41882004	     15.70146683	     38.53866301	    -33.65870603	      6.81063073	    -12.42836367
      1.86500000	     21.23443288	     -4.86751110	      7.14548739	     -0.02532158	      0.83739007	     -0.01724812	     -8.66348517	     10.70116055	    -27.31785433	      8.34674989	     15.04504648	     18.87623990	     50.24739236	    -23.50779890	     -9.51583481	     -9.82760020	    -38.02815469	     32.57931410	     15.49493725	     41.09885078	    -33.62945574	      7.13667079	    -12.49007677
      1.87000000	     21.33119137	     -4.99901797	      7.47064121	     -0.01928157	      0.83720388	     -0.01718077	     -8.98039434	     10.91110359	    -27.03428334	      8.03352705	     14.17978099	     17.47022059	     50.64990141	    -23.12875842	     -9.99013352	     -9.45080635	    -39.84260927	     31.77474871	     15.22852811	     42.83786910	    -33.64176775	      7.54171794	    -12.48587172
      1.87500000	     21.43518902	     -5.11556037	      7.80092328	     -0.01329655	      0.83711684	     -0.01713549	     -9.30145264	     11.09936105	    -26.69950278	      7.68867771	     13.25901647	     15.96167536	     51.24919044	    -22.69933664	    -10.44168082	     -9.01444193	    -41.69880756	     30.72040991	     14.90015459	     45.34175117	    -33.66970700	      7.93646217	    -12.47754119
